<svg width="2048" height="2048" viewBox="0 0 2048 2048" fill="none" xmlns="http://www.w3.org/2000/svg">
<path d="M323.41 1878H255.059V1707.2H323.41C391.76 1707.2 456.906 1699.73 518.849 1684.78C580.791 1669.84 650.209 1646 727.103 1613.26C781.214 1640.3 828.561 1662.72 869.144 1680.51C909.727 1698.3 961.346 1707.2 1024 1707.2C1086.65 1707.2 1138.27 1698.3 1178.86 1680.51C1219.44 1662.72 1266.79 1640.3 1320.9 1613.26C1396.37 1646 1465.79 1669.84 1529.15 1684.78C1592.52 1699.73 1658.38 1707.2 1726.73 1707.2H1792.94V1878H1726.73C1656.95 1878 1588.96 1871.59 1522.74 1858.78C1456.53 1845.97 1391.38 1826.76 1327.3 1801.14C1270.35 1828.18 1218.37 1847.4 1171.38 1858.78C1124.39 1870.17 1075.26 1875.86 1024 1875.86C972.737 1875.86 923.967 1870.17 877.688 1858.78C831.409 1847.4 779.79 1828.18 722.832 1801.14C658.753 1826.76 593.607 1845.97 527.392 1858.78C461.178 1871.59 393.184 1878 323.41 1878ZM799.726 1451L703.608 1365.6C665.161 1404.03 622.086 1436.77 574.383 1463.81C526.68 1490.85 475.774 1510.07 421.663 1521.45L240.108 938.6C232.988 914.403 235.124 892.342 246.515 872.415C257.907 852.488 275.707 838.967 299.914 831.85L425.935 797.69V511.6C425.935 464.63 442.667 424.421 476.13 390.972C509.593 357.524 549.82 340.8 596.811 340.8H810.405V170H1237.59V340.8H1451.19C1498.18 340.8 1538.41 357.524 1571.87 390.972C1605.33 424.421 1622.07 464.63 1622.07 511.6V797.69L1748.09 831.85C1772.29 838.967 1790.09 852.488 1801.48 872.415C1812.88 892.342 1815.01 914.403 1807.89 938.6L1626.34 1521.45C1572.23 1510.07 1521.32 1490.85 1473.62 1463.81C1425.91 1436.77 1382.84 1404.03 1344.39 1365.6L1248.27 1451C1184.2 1507.93 1109.44 1536.4 1024 1536.4C938.562 1536.4 863.804 1507.93 799.726 1451ZM596.811 752.855L1024 639.7L1451.19 752.855V511.6H596.811V752.855Z" fill="#009688"/>
</svg>
